<?xml version="1.0" encoding="UTF-8"?>
<svg id="Camada_1" xmlns="http://www.w3.org/2000/svg" viewBox="0 0 266.66 83.18">
  <defs>
    <style>
      .cls-1 {
        fill: #fff;
      }

      .cls-2 {
        fill: #008641;
      }

      .cls-3 {
        fill: #222b6c;
      }

      .cls-4 {
        fill: none;
        stroke: #222b6c;
        stroke-miterlimit: 10;
        stroke-width: 5px;
      }
    </style>
  </defs>
  <g>
    <g>
      <path d="M56.97,82.18c-.28,0-.55-.12-.74-.32s-.28-.48-.26-.76l.04-.37c.02-.21.05-.41.05-.62,0-10.52,0-21.04,0-31.56,0-.25,0-.5-.02-.75-.05-.56-.14-.68-.15-.69h0s-.14-.07-.66-.07h-7.47s-9.57,0-9.57,0c-.06,0-.11,0-.17,0,0,.1,0,.2,0,.29,0,2.72,0,5.44,0,8.16l.04,25.68c0,.26-.1.52-.29.71-.19.19-.44.29-.71.29h-7.68c-.28,0-.54-.12-.73-.32-.19-.2-.29-.48-.26-.76l.02-.17c0-.08.02-.15.02-.23,0-11.19,0-22.38,0-33.57H10.36s0,.09,0,.13c0,10.99,0,21.98,0,32.97,0,.18.02.35.04.53l.04.33c.03.28-.07.56-.26.77-.19.21-.46.33-.74.33H2c-.55,0-1-.45-1-1v-39.02c0-.52.4-.96.92-1l.42-.04c.29-.03.55-.05.8-.05l14.7-.09c8.33-.05,16.65-.1,24.98-.16,2.18-.01,4.36-.04,6.54-.07,2.46-.03,4.91-.07,7.37-.08,5.59,0,8.88,3.31,8.88,8.85v30.22c0,.32.01.64.02.96v.45c.02.27-.08.53-.27.72-.19.19-.45.3-.72.3h-7.68Z"/>
      <path class="cls-1" d="M56.8,41.67c4.97,0,7.81,2.88,7.81,7.85,0,10.07,0,20.14,0,30.22,0,.48.02.96.04,1.44h-7.68c.03-.36.09-.71.09-1.07,0-10.52,0-21.04,0-31.56,0-.28,0-.56-.03-.84-.12-1.32-.49-1.67-1.8-1.67-2.41,0-4.82,0-7.23,0-3.27,0-6.54,0-9.81,0-.35,0-.7.04-1.12.07-.02.45-.06.84-.06,1.23,0,2.72,0,5.44,0,8.16.01,8.56.02,17.12.04,25.68h-7.68c.01-.16.03-.32.03-.48,0-11.23,0-22.46,0-33.69,0-.3-.06-.61-.09-.88H9.42c-.02.43-.06.78-.06,1.13,0,10.99,0,21.98,0,32.97,0,.32.06.63.09.95H2v-39.02c.46-.04.8-.09,1.15-.09,13.23-.08,26.45-.16,39.68-.25,4.63-.03,9.27-.13,13.9-.15.02,0,.05,0,.07,0M56.8,39.67h-.08c-2.45.01-4.89.05-7.34.08-2.19.03-4.38.06-6.57.07-8.07.05-16.14.1-24.21.15l-15.47.09c-.32,0-.62.03-.9.06-.12.01-.25.02-.39.04-1.04.08-1.84.95-1.84,1.99v39.02c0,1.1.9,2,2,2h7.44c.56,0,1.1-.24,1.48-.65.38-.42.56-.97.51-1.53-.01-.12-.03-.24-.04-.35-.02-.16-.04-.31-.04-.41,0-10.7,0-21.4,0-32.1h16.04c0,10.86,0,21.72,0,32.57,0,.04,0,.09-.01.13l-.02.19c-.04.56.15,1.1.53,1.51.38.41.91.64,1.47.64h7.68c.53,0,1.04-.21,1.42-.59.38-.38.59-.89.58-1.42v-7.12s-.04-18.56-.04-18.56c0-2.48,0-4.97,0-7.45,3,0,5.99,0,8.99,0h7.05c0,.17.01.35.01.51,0,10.52,0,21.04,0,31.56,0,.14-.02.32-.04.52-.01.13-.03.26-.04.39-.05.56.14,1.11.52,1.52.38.41.91.65,1.47.65h7.68c.54,0,1.06-.22,1.43-.6.38-.39.58-.91.57-1.45v-.47c-.02-.3-.04-.61-.04-.91v-18.62s0-11.6,0-11.6c0-6.08-3.76-9.85-9.81-9.85h0Z"/>
    </g>
    <g>
      <path d="M105.45,82.18c-.28,0-.54-.11-.73-.31-.19-.2-.29-.47-.27-.75l.03-.5c.02-.33.05-.66.05-.99v-6.76c0-14.38.01-28.77-.03-43.15,0-.67.07-1.42.6-1.96.51-.51,1.2-.57,1.68-.57.09,0,.19,0,.3,0,.81.04,1.62.05,2.44.05.6,0,1.2,0,1.82-.01.64,0,1.29-.01,1.96-.01.55,0,1,.45,1,1v12.44h19.04c5.23,0,8.62,3.39,8.62,8.64,0,6.67,0,24,0,24,0,4.58-1.76,7.09-6.05,8.6-.19.18-.44.28-.7.28h-29.76ZM130.11,75.65c1.47,0,1.9-.44,1.9-1.94,0-8.27,0-16.55,0-24.82,0-1.47-.38-1.85-1.84-1.85h-6.84s-8.93,0-8.96,0v28.61h15.73Z"/>
      <path class="cls-1" d="M106.8,28.18c.08,0,.16,0,.25,0,.83.04,1.65.06,2.49.06,1.22,0,2.47-.03,3.77-.03v13.44h1.62c3.66,0,7.33,0,10.99,0,2.48,0,4.95,0,7.43,0,4.71,0,7.62,2.92,7.62,7.64,0,8,0,16,0,24,0,4.24-1.53,6.36-5.58,7.72-.07.02-.11.11-.17.16h-29.76c.03-.52.09-1.03.09-1.55,0-16.64.02-33.27-.02-49.91,0-1.14.27-1.53,1.28-1.53M113.38,76.65h1.15c2.97,0,5.94,0,8.91,0,2.23,0,4.45,0,6.68,0,2.03,0,2.9-.88,2.9-2.93,0-8.27,0-16.55,0-24.82,0-2.02-.84-2.85-2.83-2.85-2.17,0-4.35,0-6.52,0-3.06,0-6.12,0-9.18,0-.35,0-.7.04-1.09.07v30.54M106.8,26.18c-.38,0-1.52,0-2.39.87-.8.8-.9,1.85-.9,2.67.04,14.41.03,29.07.03,43.24v6.66c0,.28-.02.58-.05.91-.01.17-.03.35-.04.52-.03.55.16,1.09.54,1.49.38.4.9.63,1.45.63h29.76c.44,0,.86-.14,1.2-.4,4.58-1.66,6.55-4.52,6.55-9.48v-5.87c0-6.04,0-12.09,0-18.13,0-5.85-3.78-9.63-9.62-9.64h-7.43s-5.5,0-5.5,0h-5.12s0-11.44,0-11.44c0-1.1-.9-2-2-2-.67,0-1.32,0-1.97.01-.61,0-1.21.01-1.8.01-.94,0-1.69-.02-2.39-.05-.12,0-.24,0-.35,0h0ZM115.38,48.04c2.76,0,5.52,0,8.28,0,2.17,0,4.35,0,6.52,0,.45,0,.67.06.75.09.03.08.09.3.09.76,0,8.27,0,16.55,0,24.82,0,.61-.11.82-.12.84,0,0,0,0,0,0-.01,0-.21.09-.78.1-2.22,0-4.45,0-6.67,0h-4.46s-3.6,0-3.6,0v-26.61h0Z"/>
    </g>
    <g>
      <path d="M69.21,82.18c-.42,0-.79-.26-.94-.65-.07-.19-.16-.38-.25-.56-.25-.53-.54-1.13-.54-1.81-.04-10.87-.04-21.93-.03-32.62v-2.89c0-2.17.81-2.98,2.97-2.98h28.91c2.16,0,3,.83,3,2.96v4.73c0,10.13,0,20.6-.04,30.9,0,.72-.36,1.31-.68,1.83-.11.17-.21.35-.3.52-.17.35-.52.57-.9.57h-31.2ZM74.12,47.04c-.76,0-.94.08-.98.1,0,.02-.09.21-.09,1.03,0,0,0,23.46,0,26.64,0,.74.11.88.12.88,0,0,.14.11.87.11h10.86c3.62,0,7.24,0,10.86,0,.71,0,.85-.11.85-.11,0,0,.12-.14.12-.92,0-8.92,0-17.84,0-26.76,0-.72-.11-.86-.11-.86,0,0-.15-.11-.89-.11h-10.8s-10.8,0-10.8,0Z"/>
      <path class="cls-1" d="M84.9,41.66c4.81,0,9.62,0,14.43,0,1.6,0,2,.4,2,1.96,0,11.88.02,23.75-.04,35.63,0,.64-.58,1.28-.88,1.93h-31.2c-.25-.68-.73-1.35-.73-2.03-.05-11.84-.04-23.67-.03-35.51,0-1.61.37-1.98,1.97-1.98,4.82,0,9.65,0,14.48,0M84.9,76.81c3.62,0,7.24,0,10.86,0,1.55,0,1.97-.44,1.97-2.03,0-8.92,0-17.84,0-26.76,0-1.56-.43-1.97-2-1.98-3.61,0-7.21,0-10.82,0s-7.18,0-10.78,0c-1.73,0-2.07.35-2.07,2.13,0,4.44,0,8.88,0,13.32,0,4.44,0,8.88,0,13.32,0,1.57.42,1.99,1.98,2,3.62,0,7.24,0,10.86,0M84.61,78.27c-.2,0-.43-.02-.64-.02-.5,0-.94.11-.95.82,0,.34,1.04.69,1.6,1.03.05-.09.11-.19.16-.28.24,0,.49.03.73.03.16,0,.31-.01.45-.06.31-.11.54-.45.81-.69-.27-.28-.5-.66-.83-.8-.15-.06-.32-.08-.5-.08-.22,0-.46.03-.68.05-.05,0-.11,0-.16,0M84.9,39.66c-4.83,0-9.65,0-14.48,0-2.71,0-3.97,1.26-3.97,3.98v2.65c0,10.77-.01,21.91.03,32.87,0,.91.36,1.65.64,2.24.08.16.16.32.22.48.29.78,1.04,1.3,1.87,1.3h31.2c.77,0,1.47-.44,1.8-1.14.05-.11.15-.27.25-.43.35-.57.83-1.35.83-2.35.05-10.34.04-20.85.04-31.02v-4.62c0-2.66-1.31-3.96-4-3.96-4.81,0-9.62,0-14.43,0h0ZM74.05,48.04s.05,0,.07,0h10.78c3.61,0,7.21,0,10.82,0h0c0,8.91,0,17.82,0,26.73,0,.01,0,.02,0,.03-3.61,0-7.22,0-10.83,0s-7.23,0-10.84,0c0-3.18,0-6.36,0-9.55v-3.77s0-3.72,0-3.72c0-3.2,0-6.4,0-9.59,0-.05,0-.09,0-.13h0Z"/>
    </g>
    <g>
      <path d="M181.65,82.05c-3.12,0-6.23-.01-9.34-.05-6.5-.08-11.25-4.61-11.55-11.02-.15-3.17.94-6.16,3.05-8.42,2.13-2.27,5.16-3.61,8.31-3.66,2.05-.04,4.09-.05,6.14-.05,1.6,0,3.2,0,4.8.01,1.6,0,3.2.01,4.79.01h.51c0-.08,0-.15,0-.23,0-3.64.01-7.28,0-10.91,0-.47-.02-.72-.04-.84-.12-.02-.36-.04-.8-.04h-14.28c-1.37,0-1.5.13-1.51,1.5,0,1.1,0,2.2,0,3.32v1.52c0,.55-.45,1-1,1h-7.78c-.28,0-.54-.11-.73-.31-.19-.2-.29-.47-.27-.75.04-.62.05-1.23.06-1.83.03-1.33.06-2.71.34-4.04.82-3.9,4.25-6.64,8.34-6.66,3.27-.01,6.53-.02,9.8-.02,2.98,0,5.95,0,8.93.02,4.75.02,8.63,3.9,8.64,8.64,0,4.66,0,9.33,0,13.99,0,5.54,0,11.07.02,16.61,0,.51-.06,1.16-.54,1.64-.48.48-1.14.54-1.6.54-1.18,0-2.33,0-3.49,0-1.8,0-9.02.01-10.83.01ZM181.44,75.62c2.28,0,4.56,0,6.85.01,0,0,.07,0,.1,0,0-.02,0-.05,0-.08-.03-1.49-.02-2.98-.01-4.47v-1.78s0-4.76,0-4.76h-8.58c-2.72,0-5.42,0-8.11.02-1.06,0-1.19,1.06-1.19,1.51-.02,2.59-.01,5.19,0,7.78,0,1.23.53,1.75,1.74,1.76,1.83,0,3.66,0,5.49,0h3.73Z"/>
      <path class="cls-1" d="M180.45,41.6c3,0,5.99,0,8.99.02,4.21.02,7.63,3.44,7.64,7.64.02,10.2,0,20.4.03,30.6,0,.89-.26,1.17-1.14,1.17,0,0,0,0-.01,0-1.14,0-2.27,0-3.41,0-3.64,0-7.27.01-10.91.01-3.11,0-6.21-.01-9.32-.05-5.98-.08-10.28-4.11-10.56-10.06-.29-6.22,4.57-10.94,10.38-11.04,2.03-.04,4.07-.05,6.1-.05,3.2,0,6.41.03,9.61.03h1.42c.04-.46.1-.85.1-1.23,0-3.64.01-7.28,0-10.92,0-1.7-.2-1.88-1.84-1.88-2.55,0-5.1,0-7.65,0-2.21,0-4.42,0-6.63,0-1.93,0-2.5.57-2.51,2.5,0,1.59,0,3.18,0,4.85h-7.78c.12-2,0-3.91.39-5.72.74-3.52,3.79-5.85,7.37-5.86,3.24-.01,6.49-.02,9.73-.02M177.59,76.62c1.26,0,2.51,0,3.77,0,2.31,0,4.61,0,6.92.02,0,0,.01,0,.02,0,.82,0,1.1-.29,1.09-1.1-.04-2.08-.01-4.15,0-6.23,0-1.87,0-3.74,0-5.76-3.23,0-6.41,0-9.55,0-2.74,0-5.45,0-8.16.03-1.36.01-2.17,1.06-2.18,2.51-.02,2.6-.01,5.19,0,7.79,0,1.76.96,2.75,2.73,2.75,1.79,0,3.58,0,5.37,0M180.45,39.6c-3.25,0-6.49,0-9.74.02-4.57.02-8.4,3.08-9.32,7.45-.3,1.42-.33,2.84-.36,4.22-.01.59-.03,1.19-.06,1.79-.03.55.16,1.09.54,1.49.38.4.9.63,1.46.63h7.78c1.1,0,2-.9,2-2v-1.53c0-1.12,0-2.21,0-3.31,0-.22.01-.38.02-.49.11-.01.27-.02.48-.02,2.21,0,4.42,0,6.63,0h7.23s.26,0,.26,0c.01,3.34,0,6.68,0,10.02-1.44,0-2.88,0-4.32-.01-1.6,0-3.21-.01-4.81-.01-2.36,0-4.31.02-6.14.05-3.42.06-6.71,1.51-9.02,3.98-2.31,2.46-3.49,5.71-3.32,9.16.33,6.96,5.48,11.88,12.54,11.97,2.7.03,5.67.05,9.35.05,1.82,0,3.64,0,5.46,0,1.82,0,3.63,0,5.45,0,1.13,0,2.27,0,3.41,0h0c.39,0,1.49,0,2.32-.83.75-.75.83-1.7.83-2.35-.02-5.52-.02-11.03-.02-16.55,0-4.68,0-9.37,0-14.05-.01-5.29-4.33-9.61-9.63-9.64-3-.01-6-.02-9-.02h0ZM171.6,65.57s.04,0,.09,0c2.37-.02,4.88-.03,8.14-.03,1.56,0,3.12,0,4.7,0,.94,0,1.89,0,2.85,0v3.76c0,.6,0,1.21,0,1.81,0,1.15,0,2.34,0,3.52-2.01,0-4.01-.01-6.01-.01h-1.89s-1.88,0-1.88,0c-1.79,0-3.58,0-5.36,0-.64,0-.74-.05-.74-.76,0-2.28-.02-4.98,0-7.77,0-.32.08-.48.11-.52,0,0,0,0,0,0h0Z"/>
    </g>
    <g>
      <path d="M217.96,82.01c-3.37,0-6.76-.04-10.1-.13-4.22-.11-7.8-3.93-7.81-8.35-.03-8.95-.03-16.95,0-24.49.02-4.49,3.78-8.34,8.22-8.4,3.29-.04,6.58-.07,9.87-.07s6.56.02,9.72.07c4.36.07,8.11,3.93,8.18,8.43.01.93.01,1.87,0,2.82v1.31c0,.55-.45,1-1,1h-7.63c-.55,0-1-.45-1-1v-4.36c0-.86,0-1.75-.11-1.95-.14-.05-1.02-.05-1.87-.05h-13.32c-1.3,0-1.43.14-1.43,1.45,0,8.68,0,17.36,0,26.04,0,1.39.27,1.39.97,1.4,2.35.02,4.7.02,7.05.02h8.7v-6.23c0-.55.45-1,1-1h7.81c.28,0,.55.12.74.33s.28.49.26.77c-.06.64-.09,1.28-.12,1.93-.07,1.49-.14,3.03-.56,4.5-1.03,3.56-3.77,5.74-7.34,5.83-3.4.09-6.84.13-10.22.13Z"/>
      <path class="cls-1" d="M218.11,41.58c3.24,0,6.48.02,9.73.07,3.9.06,7.13,3.52,7.19,7.44.02,1.35,0,2.7,0,4.11h-7.63c0-1.45,0-2.9,0-4.36,0-2.98,0-2.99-2.95-2.99h-.08c-2.5,0-5,0-7.51,0-1.92,0-3.84,0-5.75,0-1.85,0-2.43.58-2.43,2.44,0,8.68,0,17.36,0,26.04,0,1.71.5,2.39,1.97,2.4,2.32.02,4.64.02,6.96.02,3.04,0,6.08,0,9.11-.01.15,0,.31-.05.67-.12v-7.1h7.81c-.19,2.11-.08,4.27-.65,6.24-.88,3.06-3.18,5.03-6.4,5.11-3.39.09-6.79.13-10.19.13s-6.72-.04-10.08-.13c-3.79-.1-6.83-3.55-6.84-7.35-.03-8.16-.03-16.32,0-24.48.02-3.9,3.33-7.35,7.23-7.4,3.28-.04,6.55-.07,9.83-.07M218.11,39.58c-3.19,0-6.51.02-9.86.07-4.97.07-9.18,4.37-9.21,9.39-.03,7.58-.04,15.59,0,24.49.02,4.94,4.04,9.22,8.79,9.35,3.35.09,6.75.13,10.13.13s6.83-.04,10.24-.13c4.03-.1,7.12-2.55,8.27-6.56.46-1.58.53-3.18.6-4.73.03-.65.06-1.27.12-1.88.05-.56-.13-1.12-.51-1.53-.38-.42-.92-.65-1.48-.65h-7.81c-1.1,0-2,.9-2,2v5.22h-2.38c-1.8,0-3.6,0-5.41,0-2.31,0-4.61,0-6.92-.02,0-.1-.01-.23-.02-.4,0-8.68,0-17.36,0-26.03,0-.19,0-.33.02-.43.1,0,.24-.02.42-.02,1.92,0,3.83,0,5.75,0h3.75s3.75,0,3.75,0h.06c.33,0,.68,0,.97,0,0,.3,0,.65,0,.99v3.01s0,1.35,0,1.35c0,1.1.9,2,2,2h7.63c1.1,0,2-.9,2-2,0-.44,0-.88,0-1.32,0-.96,0-1.89,0-2.83-.08-5.03-4.28-9.34-9.16-9.41-3.17-.05-6.45-.07-9.76-.07h0Z"/>
    </g>
    <g>
      <path d="M148.33,82.03c-.62,0-1.12-.18-1.46-.54-.35-.36-.52-.87-.5-1.51.01-.44,0-.88,0-1.32v-.69s0-30.51,0-30.51h-1.54c-.54,0-1.06,0-1.58.01,0,0-.1,0-.11,0-.74,0-2-.27-2.06-2.08-.07-1.96-.11-2.91.57-3.62.68-.71,1.67-.71,3.48-.73h.21c.27,0,.51,0,.72,0h.3c0-.15.05-2.07.05-2.07.03-1.46.07-2.98.42-4.44,1.04-4.38,4.85-7.34,9.49-7.37.58,0,1.15,0,1.73,0h3.01c.55,0,1,.45,1,1v4.17c0,.55-.45,1-1,1h-3.93c0,.18-.02.35-.02.52,0,.83,0,1.65,0,2.47,0,1.54,0,3.08-.02,4.62,0,.04,0,.11,0,.11.64-.02,1.23-.03,1.82-.03h2.66c.55.01,1,.46,1,1.01v.99c.01,1.01.02,1.96-.04,2.94-.06.94-1.22,1.41-1.8,1.45-.63.04-1.26.06-1.89.06-.5,0-.99-.02-1.48-.05-.06,0-.12,0-.17,0-.03,0-.06,0-.08,0-.01.07-.02.19-.02.37.03,8.07.03,16.15.02,24.22v6.98s0,.37,0,.37c0,.21-.01.42,0,.63.04.61-.1,1.1-.44,1.46-.34.36-.83.55-1.45.55-1.2,0-2.37-.01-3.54-.01-1.1,0-2.21,0-3.31.01h-.03Z"/>
      <path class="cls-1" d="M158.06,28.17c.98,0,1.97,0,2.99,0v4.17h-4.88c-.03.6-.07,1.06-.07,1.52,0,2.36.02,4.72-.02,7.08-.01.79.23,1.13,1,1.13.03,0,.07,0,.1,0,.57-.02,1.14-.03,1.72-.03.85,0,1.72.01,2.66.01,0,1.35.04,2.61-.04,3.87-.01.2-.56.49-.87.51-.61.04-1.22.06-1.83.06-.47,0-.94-.01-1.41-.05-.09,0-.17,0-.24,0-.87,0-1.1.41-1.1,1.37.04,10.4.02,20.8.02,31.2,0,.36-.02.72,0,1.08.05.66-.24.93-.89.93,0,0-.01,0-.02,0-1.17,0-2.33-.01-3.5-.01s-2.23,0-3.34.01c0,0-.01,0-.02,0-.71,0-.99-.33-.96-1.02.02-.68,0-1.36,0-2.04,0-9.88,0-19.76,0-29.64v-1.87c-.9,0-1.73,0-2.53,0-.55,0-1.08,0-1.61.02-.03,0-.05,0-.08,0-.75,0-1.03-.31-1.06-1.12-.12-3.3-.14-3.28,3.11-3.31.05,0,.11,0,.16,0,.47,0,.82.01,1.1.01,1.03,0,.88-.21.94-2.18.05-1.71.02-3.47.41-5.11.94-3.96,4.45-6.57,8.52-6.6.58,0,1.16,0,1.74,0M158.06,26.17c-.59,0-1.17,0-1.76,0-5.02.03-9.32,3.38-10.45,8.14-.37,1.57-.41,3.13-.44,4.65,0,.29-.01.58-.02.87,0,.08,0,.15,0,.22-.01,0-.02,0-.03,0h-.17s-.05,0-.05,0c-1.94.01-3.23.02-4.19,1.04-.97,1.01-.92,2.31-.85,4.27v.07c.07,1.88,1.24,3.04,3.07,3.04h.14c.51-.02,1.03-.02,1.56-.02.18,0,.35,0,.53,0v29.52c0,.23,0,.47,0,.7,0,.43,0,.85,0,1.27-.03.92.23,1.67.78,2.24.37.39,1.06.85,2.18.85,1.14,0,2.25-.01,3.36-.01s2.32,0,3.48.01c1.17,0,1.84-.47,2.21-.87.37-.39.78-1.1.7-2.21-.01-.15,0-.34,0-.54,0-.13,0-.26,0-.4v-6.8c0-7.78,0-15.82-.02-23.73.24,0,.49.01.75.01.6,0,1.23-.02,1.95-.07,1.05-.06,2.65-.87,2.74-2.38.06-1.01.06-2.03.05-3.01,0-.32,0-.65,0-.98,0-1.1-.9-2-2-2-.48,0-.94,0-1.39,0-.43,0-.86,0-1.28,0-.27,0-.54,0-.81,0,.01-1.25,0-2.5,0-3.71,0-.66,0-1.33,0-1.99h2.95c1.1,0,2-.9,2-2v-4.17c0-1.1-.9-2-2-2h-1.53s-1.47,0-1.47,0h0Z"/>
    </g>
    <g>
      <path d="M251.94,82.03c-.42,0-1.02-.05-1.47-.5-.34-.34-.51-.81-.5-1.43.02-13.69.03-27.38.04-41.07v-10.28c0-.14.03-.24.05-.33l.04-.19c.1-.46.51-.79.98-.79h3.35c1.62,0,3.23,0,4.84.03,1.01.02,1.5,1.25,1.52,1.31.16.41.13.8.11,1.1,0,.07,0,.15,0,.22v49.2c0,2.32-.45,2.76-2.79,2.76h-3.87c-.75,0-1.5,0-2.25,0h-.04Z"/>
      <path class="cls-1" d="M254.41,28.42c1.62,0,3.23,0,4.84.03.21,0,.5.4.61.67.11.28.04.63.04.95,0,16.4,0,32.8,0,49.2q0,1.76-1.8,1.76c-.11,0-.23,0-.34,0-1.17,0-2.33,0-3.5,0-.76,0-1.52,0-2.28,0-.01,0-.02,0-.03,0-.65,0-.98-.17-.98-.94.03-17.12.03-34.24.04-51.35,0-.04.02-.08.07-.32,1.12,0,2.23,0,3.33,0M254.41,26.42h-1.66s-1.67,0-1.67,0c-.94,0-1.76.66-1.96,1.58l-.04.17c-.03.12-.07.31-.07.56v9.86c-.01,13.83-.02,27.66-.04,41.49,0,.89.27,1.61.8,2.14.8.8,1.84.8,2.18.8.8,0,1.56,0,2.31,0h1.75s1.75,0,1.75,0h.34c2.91,0,3.79-.88,3.79-3.76,0-16.4,0-32.8,0-49.2,0-.05,0-.1,0-.16.02-.34.05-.91-.18-1.51-.34-.88-1.19-1.93-2.44-1.95-1.72-.03-3.43-.03-4.87-.03h0Z"/>
    </g>
    <g>
      <path d="M246.09,82.05c-.98-.03-1.96-.05-2.94-.05-1.12,0-2.24.02-3.37.04h0c-.76,0-1.27-.18-1.64-.55-.5-.5-.56-1.18-.56-1.64,0-4.86,0-9.72.01-14.58,0-7.54,0-15.08.03-22.62,0-.67.63-1.96,1.61-1.98,1.57-.04,3.14-.05,4.73-.05h3.49c.54,0,.98.43,1,.96l.02.46c.02.32.03.59.03.87v9.06c0,9.22,0,18.43.03,27.65,0,.59-.06,1.33-.59,1.86-.51.51-1.19.57-1.66.57h-.19Z"/>
      <path class="cls-1" d="M244,41.62c1.14,0,2.28,0,3.43,0,.02.51.05.9.05,1.29,0,12.24-.01,24.48.03,36.71,0,1.05-.27,1.42-1.24,1.42-.05,0-.1,0-.15,0-.99-.03-1.99-.05-2.98-.05-1.13,0-2.25.02-3.38.04-.02,0-.04,0-.06,0-.83,0-1.13-.33-1.13-1.19.02-12.4,0-24.8.04-37.19,0-.34.4-.98.63-.99,1.58-.04,3.16-.05,4.76-.05M244,39.62c-1.42,0-3.1,0-4.81.05-1.57.04-2.58,1.79-2.58,2.98-.02,7.52-.02,15.04-.03,22.57,0,4.88,0,9.75-.01,14.63,0,.37,0,1.49.85,2.35.56.56,1.33.85,2.28.85h.1c1.11-.02,2.23-.04,3.34-.04s2.02.02,2.91.05c.08,0,.15,0,.22,0,.37,0,1.51,0,2.37-.86.79-.79.88-1.85.88-2.57-.03-9.24-.03-18.64-.03-27.73v-8.98c0-.29-.01-.59-.03-.92l-.02-.46c-.05-1.07-.93-1.91-2-1.91h-1.73s-1.71,0-1.71,0h0Z"/>
    </g>
    <g>
      <path d="M226.49,15.18c-.27,0-.54-.11-.74-.33l-3.26-3.6c-.18-.2-.27-.46-.26-.72.01-.27.13-.52.33-.69,6.65-5.95,13.38-8.84,20.58-8.84h.12c8.73.04,16.17,3.2,22.12,9.38.2.2.29.48.28.76-.02.28-.15.54-.37.72l-3.82,3.06c-.18.15-.4.22-.62.22-.26,0-.51-.1-.71-.29-4.44-4.46-9.98-6.8-16.47-6.97-.16,0-.32,0-.48,0-6.72,0-11.88,3.58-16.05,7.08-.19.16-.42.23-.64.23Z"/>
      <path class="cls-1" d="M243.14,2s.08,0,.12,0c8.32.04,15.49,2.92,21.4,9.08-1.31,1.05-2.52,2.02-3.82,3.06-4.72-4.75-10.5-7.09-17.15-7.26-.17,0-.34,0-.51,0-6.59,0-11.83,3.23-16.69,7.32-1.06-1.16-2.11-2.33-3.26-3.6,5.49-4.91,11.92-8.59,19.91-8.59M243.14,0h0c-7.45,0-14.4,2.98-21.24,9.1-.4.36-.64.85-.66,1.39-.03.53.16,1.05.52,1.45l3.26,3.6c.39.43.94.66,1.48.66.46,0,.91-.15,1.29-.47,4.03-3.39,9-6.85,15.4-6.85.15,0,.3,0,.46,0,6.22.16,11.53,2.4,15.78,6.67.39.39.9.59,1.42.59.44,0,.88-.14,1.25-.44l1.41-1.13,2.41-1.93c.44-.35.71-.87.75-1.43.04-.56-.16-1.11-.55-1.52C259.96,3.3,252.27.04,243.26,0h-.13Z"/>
    </g>
    <g>
      <path d="M231.48,20.63c-.27,0-.54-.11-.74-.33l-3.15-3.48c-.34-.37-.35-.93-.03-1.32,3.26-3.88,9.14-6.19,15.73-6.19s12.71,2.39,16.01,6.39c.17.21.25.47.22.74-.03.27-.16.51-.37.68l-3.75,2.98c-.18.15-.4.22-.62.22-.24,0-.48-.09-.67-.26-2.95-2.66-6.55-3.95-11-3.96-3.65,0-6.94,1.29-11.03,4.32-.18.13-.39.2-.59.2Z"/>
      <path class="cls-1" d="M243.29,10.32c5.95,0,11.93,2.01,15.24,6.03-1.26,1-2.47,1.97-3.75,2.98-3.33-3.01-7.27-4.21-11.67-4.21h0c-4.42,0-8.08,1.9-11.62,4.52-1.04-1.15-2.1-2.32-3.16-3.48,3.27-3.89,9.11-5.83,14.96-5.83M243.29,8.32h0c-6.88,0-13.05,2.45-16.49,6.55-.64.77-.62,1.89.05,2.63l2.07,2.28,1.09,1.2c.39.43.94.66,1.48.66.42,0,.83-.13,1.19-.39,3.9-2.89,7.02-4.12,10.43-4.12,4.2,0,7.58,1.21,10.34,3.7.38.34.86.51,1.34.51.44,0,.88-.14,1.24-.43l2.23-1.77,1.52-1.21c.42-.33.69-.82.74-1.36.06-.53-.1-1.07-.45-1.48-3.49-4.23-9.76-6.76-16.78-6.76h0Z"/>
    </g>
    <g>
      <path d="M236.82,25.86c-.24,0-.49-.09-.67-.26l-3.43-3.14c-.39-.36-.44-.97-.09-1.38,1.91-2.29,5.89-3.72,10.39-3.72s8.25,1.36,10.42,3.63c.19.19.29.46.28.73,0,.27-.13.52-.33.7l-3.48,3.17c-.19.17-.43.26-.67.26-.16,0-.32-.04-.47-.12-1.92-1.02-3.85-1.54-5.73-1.54s-3.79.51-5.74,1.55c-.15.08-.31.12-.47.12Z"/>
      <path class="cls-1" d="M243.01,18.37c3.74,0,7.54,1.06,9.7,3.32-1.21,1.1-2.35,2.14-3.48,3.17-2.07-1.1-4.13-1.66-6.2-1.66-2.06,0-4.12.55-6.21,1.66-1.1-1.01-2.27-2.07-3.43-3.14,1.82-2.19,5.69-3.36,9.62-3.36M243.01,16.37h0c-4.86,0-9.03,1.53-11.16,4.08-.69.82-.6,2.04.19,2.76l1.37,1.25,2.06,1.88c.38.34.86.52,1.35.52.32,0,.64-.08.94-.24,1.8-.96,3.53-1.43,5.27-1.43,1.74,0,3.46.47,5.26,1.42.3.16.62.23.94.23.49,0,.97-.18,1.35-.52l1.05-.96,2.43-2.21c.4-.36.63-.87.65-1.41s-.18-1.06-.55-1.45c-2.39-2.5-6.45-3.94-11.14-3.94h0Z"/>
    </g>
    <g>
      <path d="M243.96,37.68c-1.59,0-3.17,0-4.74-.04-.77-.01-1.64-.89-1.66-1.67-.04-1.93-.04-3.86-.03-5.83v-1.68c0-.55.45-1,1-1h8.93c.55,0,1,.45,1,1v8.21c0,.55-.45,1-1,1h-3.5Z"/>
      <path class="cls-1" d="M247.46,28.47v8.21c-1.19,0-2.36,0-3.52,0-1.58,0-3.14,0-4.7-.03-.24,0-.67-.45-.68-.69-.05-2.47-.03-4.93-.03-7.49h8.93M247.46,26.47h-8.93c-1.1,0-2,.9-2,2v1.68c0,2.01,0,3.91.03,5.85.03,1.31,1.33,2.62,2.64,2.65,1.68.03,3.34.03,4.74.03h1.74s1.78,0,1.78,0c1.1,0,2-.9,2-2v-8.21c0-1.1-.9-2-2-2h0Z"/>
    </g>
    <g>
      <path d="M181.52,39.69c-.19,0-.39-.01-.6-.04-.18-.02-.36-.03-.55-.03-.17,0-.35,0-.54.01-.24,0-.5.01-.79.01-.35,0-.67-.18-.85-.48-.18-.3-.2-.67-.04-.98l.85-1.64c.96-1.88,1.88-3.66,2.83-5.43.32-.6,1.08-.93,1.65-.93,1.13-.02,2.25-.02,3.42-.02h3.17c.38,0,.73.22.9.57.17.34.12.75-.11,1.06-.11.14-.2.26-.28.36-.18.24-.32.43-.48.59-.58.58-1.16,1.15-1.74,1.73-1.21,1.2-2.47,2.44-3.64,3.7-.97,1.05-1.98,1.54-3.19,1.54Z"/>
      <path class="cls-1" d="M186.87,31.17c1.03,0,2.08,0,3.19,0-.32.41-.48.66-.68.86-1.81,1.81-3.67,3.57-5.41,5.45-.73.78-1.47,1.21-2.45,1.21-.15,0-.31-.01-.47-.03-.22-.03-.44-.04-.67-.04-.39,0-.82.02-1.33.02,1.28-2.49,2.45-4.78,3.66-7.06.12-.22.51-.4.78-.4,1.12-.02,2.24-.02,3.39-.02M186.87,29.17c-1.16,0-2.29,0-3.42.02-.84.01-1.99.48-2.51,1.46-.95,1.79-1.87,3.58-2.85,5.47l-.83,1.61c-.32.62-.29,1.36.07,1.96s1.01.96,1.71.96c.3,0,.57,0,.82-.01.18,0,.35-.01.52-.01.18,0,.31,0,.42.02.25.03.49.05.73.05,1.48,0,2.76-.61,3.92-1.86,1.15-1.25,2.4-2.47,3.61-3.66.59-.58,1.17-1.15,1.75-1.74.23-.23.4-.45.57-.69.07-.1.16-.21.26-.34.47-.6.56-1.42.23-2.11-.33-.69-1.03-1.13-1.8-1.13h-1.65s-1.54,0-1.54,0h0Z"/>
    </g>
  </g>
  <g>
    <g>
      <g>
        <path class="cls-3" d="M57.75,41.71c-6.07,0-55.86.38-55.86.38v39.11h7.39v-35.14h20.04v35.14h7.59v-35.14h20.04v35.14h7.59v-32.7s-.72-6.79-6.79-6.79Z"/>
        <path class="cls-3" d="M56.95,47.77v-2.22h-2.22c1.22,0,2.22.99,2.22,2.22Z"/>
      </g>
      <path class="cls-3" d="M68.35,43.04v36.81c0,.75.61,1.35,1.35,1.35h30.2c.75,0,1.35-.61,1.35-1.35v-36.81c0-.75-.61-1.35-1.35-1.35h-30.2c-.75,0-1.35.61-1.35,1.35ZM85.96,79.87h-2.32c-.43,0-.78-.35-.78-.78s.35-.78.78-.78h2.32c.43,0,.78.35.78.78s-.35.78-.78.78ZM96.25,76.83h-22.91c-.75,0-1.35-.61-1.35-1.35v-28.05c0-.75.61-1.35,1.35-1.35h22.91c.75,0,1.35.61,1.35,1.35v28.05c0,.75-.61,1.35-1.35,1.35Z"/>
      <path class="cls-3" d="M133.81,41.69h-20.54v-13.44h-7.81v52.95h28.37c3.9,0,7.07-3.16,7.07-7.07v-25.35c0-3.92-3.18-7.1-7.1-7.1ZM132.89,74.34c0,1.29-1.05,2.34-2.34,2.34h-17.34v-30.61h17.36c1.28,0,2.32,1.04,2.32,2.32v25.95Z"/>
    </g>
    <g>
      <path class="cls-2" d="M161.59,41.99h-5.47v-9.52h5.04v-4.32h-5.04c-4.9,0-8.87,4.16-8.87,9.28v4.55h-5.27v4.57h5.27v34.54h8.86v-31.43h.01v-3.11h5.47v-4.57Z"/>
      <path class="cls-2" d="M235,53.34v-3.94c0-4.32-3.5-7.82-7.82-7.82h-18.5c-4.32,0-7.82,3.5-7.82,7.82v23.88c0,4.32,3.5,7.82,7.82,7.82h18.5c4.32,0,7.82-3.5,7.82-7.82v-3.94h-7.82v7.38h-16.82c-1.2,0-1.57-.81-1.68-1.38v-28.01c.12-.56.49-1.38,1.68-1.38h16.82v7.38h7.82Z"/>
      <path class="cls-2" d="M227.2,47.46s.09-1.9-1.74-1.9-1.65-1.66-1.65-1.66l5.21-.53-1.82,4.09Z"/>
      <rect class="cls-2" x="238.42" y="41.59" width="9.02" height="39.51"/>
      <rect class="cls-3" x="238.42" y="28.36" width="9.02" height="8.34"/>
      <rect class="cls-2" x="250.85" y="28.36" width="9.02" height="52.75"/>
      <polygon class="cls-2" points="178.87 38.74 182.7 38.74 190.31 31.12 182.78 31.12 178.87 38.74"/>
      <path class="cls-2" d="M189.22,41.59h-18.5c-4.32,0-7.82,3.5-7.82,7.82v3.94h7.82v-5.56c0-.37.14-1.82,1.74-1.82h16.25c.29.26.45.6.52.9v12.99h-16.9c-5.93,0-10.73,4.81-10.73,10.73h0c0,5.8,4.71,10.51,10.51,10.51h24.94v-31.7c0-4.32-3.5-7.82-7.82-7.82ZM189.22,76.57h-17.43c-1.31,0-2.37-1.06-2.37-2.37v-8.25c0-1.31,1.06-2.37,2.37-2.37h17.43v12.99Z"/>
    </g>
    <path class="cls-4" d="M235,23.34s2.25-2.51,7.92-2.51,7.92,2.51,7.92,2.51"/>
    <path class="cls-4" d="M229.76,17.91s5.73-5.21,13.16-5.21c9.49,0,13.61,5.21,13.61,5.21"/>
    <path class="cls-4" d="M224.55,12.69s8.05-8.23,18.38-8.23c13.12,0,19.67,8.23,19.67,8.23"/>
  </g>
</svg>