<svg width="300" height="70" viewBox="0 0 222 51" fill="none" xmlns="http://www.w3.org/2000/svg">
<rect width="91" height="51" rx="3" fill="#39846D"/>
<g filter="url(#filter0_d_202_2485)">
<path d="M17.092 17.654V37.488C17.092 40.637 15.588 42.188 12.533 42.188C9.478 42.188 7.927 40.637 7.927 37.582V13.518C7.927 10.463 9.384 8.912 12.345 8.912H21.651C29.594 8.912 33.166 13.048 33.166 19.581C33.166 25.597 29.735 30.203 24.001 30.203H22.403C19.395 30.203 18.361 28.699 18.361 26.302C18.361 23.905 19.818 22.824 21.839 22.824H22.591C24.142 22.824 25.082 22.025 25.082 20.333C25.082 18.453 23.954 17.654 22.027 17.654H17.092ZM46.456 22.448L44.059 28.417H48.477L46.456 22.448ZM52.284 39.227L50.968 35.608H41.192L39.735 39.227C38.842 41.248 37.291 42.188 35.74 42.188C33.296 42.188 30.805 40.496 30.805 37.864C30.805 37.065 30.899 36.454 31.134 36.031L42.32 11.497C43.072 9.852 44.059 8.771 46.55 8.771C48.947 8.771 49.981 9.852 50.686 11.544L60.885 36.031C61.12 36.501 61.214 37.112 61.214 37.864C61.214 40.355 58.77 42.188 56.326 42.188C54.305 42.188 52.989 41.201 52.284 39.227ZM71.034 18.218L75.123 11.121C76.063 9.476 77.567 8.771 79.024 8.771C81.421 8.771 83.724 10.745 83.724 13.236C83.724 14.035 83.489 14.881 82.972 15.727L75.64 27.665V37.629C75.64 40.637 73.525 42.188 71.081 42.188C68.59 42.188 66.522 40.637 66.522 37.629V27.665L59.096 15.68C58.579 14.881 58.344 14.129 58.344 13.377C58.344 10.839 60.647 8.771 63.091 8.771C64.407 8.771 66.005 9.429 66.945 11.074L71.034 18.218Z" fill="#FEFEFE"/>
</g>
<path d="M130.609 7.83936H134.221V42H125.234V28.5835L116.122 41.4331H116.059L106.926 28.5835V42H97.9395V7.83936H101.551L116.08 27.7437L130.609 7.83936ZM157.19 42.8608C146.671 42.8608 138.63 35.1973 138.63 25.1191C138.63 14.957 146.692 7.25146 157.211 7.25146C167.73 7.25146 175.793 14.957 175.793 25.1191C175.793 35.1973 167.73 42.8608 157.19 42.8608ZM157.211 34.2734C162.586 34.2734 166.702 30.2632 166.702 25.0562C166.702 19.8281 162.586 15.7969 157.211 15.7969C151.836 15.7969 147.721 19.8281 147.721 25.0562C147.721 30.2632 151.836 34.2734 157.211 34.2734ZM198.259 22.9355C201.87 22.9355 205.922 26.5679 205.922 31.6699C205.922 37.0239 201.429 42 194.647 42H180.202V8.1543H191.33C197.461 8.1543 201.954 12.2905 201.954 16.9517C201.954 20.437 199.645 22.9355 198.259 22.9355ZM194.417 18.5684C194.417 16.9307 192.989 15.9648 191.057 15.9648H188.853V21.2769H190.994C192.947 21.2769 194.417 20.311 194.417 18.5684ZM193.283 33.8325C195.34 33.8325 197.314 32.8247 197.314 30.5991C197.314 28.6255 195.886 27.4287 193.346 27.4287L188.853 27.4077V33.8325H193.283ZM209.765 42V8.1543H218.751V42H209.765Z" fill="#39846D"/>
<defs>
<filter id="filter0_d_202_2485" x="5.92676" y="7.771" width="83.7974" height="41.417" filterUnits="userSpaceOnUse" color-interpolation-filters="sRGB">
<feFlood flood-opacity="0" result="BackgroundImageFix"/>
<feColorMatrix in="SourceAlpha" type="matrix" values="0 0 0 0 0 0 0 0 0 0 0 0 0 0 0 0 0 0 127 0" result="hardAlpha"/>
<feOffset dx="2" dy="3"/>
<feGaussianBlur stdDeviation="2"/>
<feComposite in2="hardAlpha" operator="out"/>
<feColorMatrix type="matrix" values="0 0 0 0 0 0 0 0 0 0 0 0 0 0 0 0 0 0 0.28 0"/>
<feBlend mode="normal" in2="BackgroundImageFix" result="effect1_dropShadow_202_2485"/>
<feBlend mode="normal" in="SourceGraphic" in2="effect1_dropShadow_202_2485" result="shape"/>
</filter>
</defs>
</svg>
